<?xml version="1.0" standalone="no"?>
<!DOCTYPE svg PUBLIC "-//W3C//DTD SVG 20010904//EN"
 "http://www.w3.org/TR/2001/REC-SVG-20010904/DTD/svg10.dtd">
<svg version="1.0" xmlns="http://www.w3.org/2000/svg"
 width="400.000000pt" height="400.000000pt" viewBox="0 0 400.000000 400.000000"
 preserveAspectRatio="xMidYMid meet">
<metadata>
Created by potrace 1.16, written by Peter Selinger 2001-2019
</metadata>
<g transform="translate(0.000000,400.000000) scale(0.100000,-0.100000)"
fill="#000000" stroke="none">
<path d="M0 2000 l0 -2000 2000 0 2000 0 0 2000 0 2000 -2000 0 -2000 0 0
-2000z m2113 1634 c35 -6 38 -10 53 -60 8 -30 20 -56 25 -60 6 -3 28 6 49 21
44 31 67 28 102 -13 13 -15 35 -33 51 -39 15 -7 27 -19 27 -27 0 -8 8 -28 17
-44 l17 -30 -39 -45 c-22 -24 -50 -50 -62 -57 -18 -11 -21 -18 -16 -39 16 -59
6 -108 -37 -188 -27 -48 -43 -89 -42 -106 2 -16 -2 -45 -7 -65 -13 -46 8 -115
36 -121 26 -5 53 -31 53 -51 0 -10 9 -29 20 -43 11 -14 20 -32 20 -41 0 -9 6
-25 12 -36 10 -15 10 -22 0 -32 -6 -6 -12 -22 -12 -34 0 -29 -35 -72 -63 -76
-12 -2 -23 -11 -25 -23 -9 -44 -13 -45 -263 -45 -226 0 -240 1 -259 20 -11 11
-20 24 -20 29 0 5 -12 11 -27 13 -21 2 -33 13 -47 43 -29 59 -24 132 13 195 5
8 15 28 22 44 8 16 26 34 41 40 23 9 27 16 33 73 10 97 -1 160 -42 227 -43 71
-53 137 -29 184 21 40 20 43 -6 37 -19 -4 -31 6 -65 52 l-43 56 22 36 c30 48
96 114 132 129 24 11 31 10 45 -2 24 -22 66 -29 78 -14 6 7 13 29 15 48 3 31
7 36 38 41 49 9 138 10 183 3z m-701 -891 c-11 -16 -30 -48 -42 -73 -12 -25
-49 -75 -81 -112 -33 -36 -59 -70 -59 -74 0 -5 30 21 68 57 46 46 89 76 136
98 38 17 71 30 73 28 2 -2 -10 -43 -26 -91 -19 -58 -25 -89 -17 -91 6 -2 31
-7 56 -12 l45 -8 -47 -23 c-46 -23 -98 -73 -98 -94 0 -14 17 -6 116 52 46 27
89 50 94 50 24 0 6 -21 -44 -49 -100 -56 -195 -142 -243 -220 -23 -37 -31
-113 -15 -139 6 -9 156 -12 692 -13 l683 0 64 -31 c34 -17 90 -53 124 -80 71
-58 90 -56 33 3 -46 49 -124 101 -175 118 -34 11 -35 13 -35 59 -1 61 -23 103
-93 172 -48 47 -191 151 -225 163 -21 8 0 16 85 33 l85 18 34 -30 c67 -57 155
-139 163 -151 9 -15 37 -17 37 -4 0 5 -15 29 -33 52 -27 36 -90 85 -172 134
-13 8 -77 174 -70 183 1 1 33 -12 71 -29 52 -24 85 -49 131 -98 72 -77 84 -71
17 9 -25 30 -57 78 -71 105 -14 28 -34 63 -45 78 -11 16 -18 30 -16 33 8 7
100 -37 158 -76 60 -41 124 -106 142 -146 18 -38 36 -29 44 21 3 25 9 45 13
45 21 0 150 -250 151 -291 0 -9 8 -19 19 -22 14 -3 20 -18 25 -66 4 -33 11
-61 16 -61 14 0 12 65 -5 144 -8 38 -13 72 -10 74 9 9 86 -168 104 -240 10
-40 22 -109 26 -154 l7 -81 -58 -51 c-38 -34 -52 -52 -41 -52 10 0 58 39 107
86 53 51 90 80 90 71 0 -18 -57 -192 -73 -222 -5 -11 -44 -64 -85 -118 -40
-54 -71 -102 -67 -105 9 -9 89 79 131 145 32 48 89 101 100 90 6 -5 -45 -155
-71 -208 -11 -23 -28 -40 -49 -47 -35 -13 -93 -68 -83 -78 4 -4 30 11 59 33
64 48 108 68 108 50 0 -6 -24 -41 -53 -77 -37 -45 -68 -72 -102 -88 -62 -29
-98 -52 -92 -58 2 -3 38 11 80 30 120 54 129 55 85 10 -20 -22 -54 -66 -77
-98 -22 -32 -72 -85 -111 -118 -59 -50 -83 -78 -66 -78 2 0 36 27 77 60 63 51
79 60 114 60 l40 0 -57 -33 c-52 -29 -136 -99 -153 -127 -5 -8 5 -10 38 -5 56
9 71 -9 25 -28 -64 -27 -246 -185 -223 -194 43 -16 41 -23 -38 -98 -102 -98
-195 -145 -287 -147 -56 -1 -69 -5 -95 -29 -83 -78 -206 -79 -356 -4 -30 15
-62 34 -72 43 -25 22 -32 8 -15 -35 19 -49 31 -113 21 -113 -4 1 -28 28 -52
60 -37 50 -50 60 -74 60 -32 0 -47 -15 -74 -70 l-17 -35 -4 48 c-2 28 -9 50
-16 53 -8 3 -35 -8 -60 -25 -119 -75 -278 -62 -360 28 -13 14 -31 21 -58 21
-65 0 -164 59 -285 171 -51 47 -54 60 -10 53 32 -6 57 -27 88 -74 9 -14 20
-22 24 -18 21 21 -193 254 -278 303 -56 32 -51 46 17 47 25 1 46 4 46 8 0 12
-135 99 -190 123 -58 26 -56 37 5 37 33 0 47 -6 71 -31 30 -32 111 -89 126
-89 21 0 2 20 -71 75 -43 33 -91 79 -106 102 -14 23 -51 64 -80 91 -56 52 -59
62 -16 62 20 0 44 -19 97 -78 39 -42 96 -91 125 -108 57 -33 113 -52 107 -35
-1 5 -46 42 -98 83 -52 40 -119 91 -147 113 -35 27 -60 58 -77 93 -42 85 -38
86 72 9 66 -46 69 -26 4 25 -54 43 -62 54 -90 130 -40 106 -51 154 -31 143 50
-29 73 -53 93 -99 23 -50 129 -199 160 -225 32 -27 16 12 -38 93 -29 45 -71
107 -92 140 -21 32 -46 69 -55 82 -21 31 -83 223 -75 231 3 3 24 -15 47 -40
22 -26 44 -47 49 -47 5 0 6 24 3 53 -7 68 20 219 54 304 25 63 71 153 78 153
1 0 2 -26 0 -58 -1 -44 -11 -77 -39 -134 -22 -43 -36 -86 -34 -99 3 -19 12 -8
44 56 23 44 49 105 59 135 28 88 73 165 136 232 32 34 61 59 64 56 3 -3 -4
-26 -16 -51 -20 -42 -21 -77 -1 -77 4 0 16 17 26 38 41 86 136 179 243 239 73
41 91 43 65 6z"/>
<path d="M1928 3612 c-25 -5 -23 -49 2 -62 14 -7 25 -7 38 1 27 17 52 4 52
-26 0 -18 5 -25 19 -25 15 0 19 6 18 28 -2 22 2 27 22 27 13 0 26 -5 28 -12 3
-7 -4 -9 -18 -6 -16 4 -20 2 -17 -8 3 -8 11 -13 17 -11 6 1 11 -7 11 -18 0
-23 13 -26 30 -6 6 8 18 12 26 9 19 -7 18 11 -1 27 -9 7 -14 19 -11 26 3 7 1
16 -4 19 -6 4 -10 1 -10 -4 0 -6 -4 -11 -10 -11 -5 0 -10 7 -10 15 0 8 5 15
10 15 6 0 10 6 10 13 0 18 -96 21 -107 4 -4 -8 -17 -16 -28 -19 -11 -3 -28 -9
-37 -13 -12 -5 -18 -3 -18 7 0 10 11 15 31 16 18 0 37 6 42 11 11 11 -43 13
-85 3z"/>
<path d="M2255 3520 c-10 -12 -24 -19 -31 -16 -6 2 -17 -1 -23 -7 -14 -14 -15
-91 -1 -82 6 3 7 -1 4 -9 -4 -11 0 -16 15 -16 19 0 20 4 14 45 -4 33 -2 45 7
45 8 0 10 -8 7 -21 -4 -15 1 -27 16 -39 l21 -17 -22 -7 c-12 -4 -22 -12 -22
-18 0 -5 -6 -8 -14 -5 -8 3 -17 -2 -21 -11 -6 -15 -8 -15 -21 2 -8 11 -14 16
-14 12 0 -5 -7 -3 -15 4 -11 10 -18 9 -30 -3 -8 -9 -15 -20 -15 -25 0 -12 -24
-22 -51 -22 -10 0 -19 -7 -19 -15 0 -25 39 -17 80 15 38 30 56 38 45 20 -3 -5
-2 -18 4 -28 11 -21 4 -36 -24 -46 -19 -7 -19 -8 -2 -20 21 -16 21 -22 1 -30
-10 -4 -18 3 -25 23 -9 24 -16 29 -40 29 -17 -1 -29 -6 -29 -14 0 -8 -11 -16
-25 -20 -14 -3 -25 -10 -25 -14 0 -4 -14 -22 -32 -39 -17 -17 -29 -34 -25 -37
3 -3 23 10 43 30 36 35 64 46 64 26 0 -5 -11 -12 -24 -16 -13 -3 -28 -16 -35
-30 -11 -25 -3 -32 17 -12 15 15 43 -7 35 -28 -7 -18 4 -18 23 0 12 13 10 17
-14 35 -25 19 -25 20 -6 21 31 0 48 24 29 40 -17 14 -21 35 -5 25 6 -3 10 1
10 10 0 9 4 14 9 11 11 -7 20 -66 10 -66 -5 0 -5 -8 -2 -17 5 -12 2 -15 -10
-10 -9 3 -17 2 -17 -2 0 -5 7 -12 16 -15 9 -3 14 -13 10 -21 -8 -23 10 -26 29
-5 10 12 13 20 7 20 -7 0 -12 11 -12 25 0 17 9 31 30 43 21 13 26 22 19 29
-12 12 -4 33 12 33 5 0 9 -7 9 -15 0 -8 5 -15 10 -15 12 0 2 53 -11 58 -16 6
4 32 24 32 15 0 18 -3 10 -11 -12 -12 4 -79 19 -79 4 0 8 -6 8 -14 0 -14 28
-31 45 -27 6 2 7 -1 3 -4 -4 -4 -3 -17 3 -27 7 -13 14 -17 21 -10 12 12 -18
75 -32 67 -6 -4 -10 1 -10 9 0 9 -5 16 -11 16 -5 0 -7 5 -4 10 3 6 1 10 -4 10
-6 0 -11 7 -11 15 0 8 -5 15 -11 15 -8 0 -8 5 1 15 9 10 9 15 1 15 -23 0 -10
20 24 35 28 14 34 22 32 45 -1 19 -6 26 -17 23 -8 -3 0 9 19 26 34 30 34 31
16 51 -23 25 -37 25 -60 0z"/>
<path d="M1681 3481 c-12 -8 -12 -12 -2 -25 14 -16 7 -21 -26 -17 -7 1 -17 -8
-23 -19 -8 -16 -8 -24 4 -35 19 -19 36 -19 36 1 0 8 -4 12 -10 9 -5 -3 -10 -1
-10 4 0 6 17 11 37 11 27 0 34 -3 26 -11 -9 -9 -9 -16 0 -30 16 -26 -5 -48
-28 -29 -23 19 -26 8 -4 -19 l20 -24 25 24 c21 20 27 21 34 9 5 -8 10 -21 10
-29 0 -7 6 -11 15 -8 8 4 17 2 20 -3 4 -6 1 -10 -5 -10 -7 0 -9 -8 -5 -20 4
-11 2 -20 -4 -20 -6 0 -8 -7 -5 -15 4 -8 1 -15 -6 -15 -7 0 -10 -7 -6 -17 4
-9 1 -20 -5 -24 -6 -4 -8 -12 -5 -18 10 -15 34 -14 33 2 -3 31 16 87 30 87 10
0 12 -6 8 -20 -4 -11 -2 -20 4 -20 6 0 11 11 11 24 0 14 5 28 10 31 6 4 10 12
9 18 -1 7 3 25 10 42 10 25 10 31 -5 42 -10 7 -22 13 -27 13 -5 0 -4 6 2 14
10 12 8 17 -8 25 -26 14 -34 14 -29 -1 3 -7 -2 -19 -9 -26 -11 -12 -16 -12
-30 -1 -14 12 -15 11 -9 -9 4 -12 3 -22 -2 -22 -5 0 -15 30 -23 67 -14 69 -28
83 -58 64z"/>
<path d="M1822 3025 c-32 -34 -40 -55 -23 -55 16 0 21 -45 10 -96 -8 -37 -9
-61 -1 -82 12 -34 -5 -59 -33 -49 -23 9 -26 -9 -5 -28 19 -17 21 -17 39 -1 11
10 24 32 31 49 6 18 21 52 32 78 13 30 19 61 16 94 -4 64 17 72 26 9 3 -26 6
-67 6 -92 0 -37 -2 -42 -14 -33 -11 9 -15 6 -20 -15 -9 -35 -1 -41 24 -19 21
19 21 19 10 -9 -6 -16 -9 -29 -8 -30 2 -1 17 -6 34 -12 29 -10 31 -10 26 8 -2
11 -14 23 -26 27 -20 8 -20 8 3 16 23 7 23 9 17 94 -5 84 -4 93 8 39 5 -20 11
-26 22 -21 14 5 15 1 8 -28 -10 -47 -6 -140 8 -156 20 -24 43 -10 46 27 6 81
5 97 -2 133 -7 30 -5 37 7 37 16 0 27 -29 27 -71 0 -14 3 -29 7 -33 4 -3 8
-13 9 -20 3 -24 36 -66 46 -60 5 3 3 13 -6 23 -22 24 -22 48 -1 31 21 -18 26
-9 19 30 -6 29 -9 31 -19 16 -11 -15 -13 -14 -19 6 -10 37 -7 72 8 93 21 32
24 71 6 94 l-16 22 -26 -20 c-14 -12 -31 -21 -37 -21 -6 0 -11 -6 -11 -12 0
-7 -13 -13 -29 -14 -23 -1 -27 2 -23 18 4 15 0 19 -15 16 -11 -1 -28 3 -37 11
-13 11 -22 11 -40 3 -21 -9 -25 -8 -30 14 -8 32 -17 30 -54 -11z"/>
<path d="M2170 2994 c0 -36 -6 -58 -20 -74 -23 -27 -26 -44 -6 -37 14 5 27
-22 56 -115 14 -45 36 -66 52 -50 9 9 7 17 -7 32 -16 18 -17 23 -5 30 12 8 12
14 -3 45 -13 28 -15 41 -7 50 19 23 1 104 -31 139 l-28 31 -1 -51z"/>
<path d="M1835 2673 c-16 -3 -34 -8 -39 -13 -5 -5 -17 -3 -28 3 -25 16 -41 -7
-33 -47 5 -28 4 -28 -13 -13 -26 24 -29 22 -24 -18 4 -36 18 -46 28 -20 9 23
22 8 16 -20 -4 -25 11 -35 23 -15 6 10 41 5 85 -13 14 -6 31 -11 37 -12 7 0
12 -4 12 -9 0 -5 6 -13 15 -18 8 -5 13 -15 10 -23 -5 -11 1 -15 17 -14 13 0
18 3 12 6 -7 2 -13 13 -13 23 0 20 -40 89 -52 90 -5 0 -8 -10 -8 -22 0 -27
-13 -15 -15 15 -1 16 -9 23 -31 25 -32 4 -44 17 -44 47 l1 20 11 -20 c6 -11
11 -21 12 -22 1 -1 13 -4 29 -8 22 -6 27 -4 28 11 1 11 4 6 8 -11 7 -30 7 -30
19 -7 8 13 10 36 6 57 -6 36 -7 37 -69 28z"/>
<path d="M1967 2642 c-37 -38 -38 -102 -2 -137 56 -57 165 -14 165 65 0 58
-39 100 -94 100 -33 0 -48 -6 -69 -28z"/>
<path d="M2150 2656 c0 -7 8 -24 18 -37 20 -27 44 -100 36 -108 -3 -3 -10 2
-15 12 -11 19 -29 23 -29 5 0 -6 -10 -22 -22 -35 -12 -13 -18 -26 -15 -30 9
-9 87 15 87 27 0 16 22 11 35 -7 16 -22 39 -11 59 28 15 30 15 34 -1 51 -9 10
-23 16 -31 13 -8 -3 -16 3 -19 16 -4 14 -12 19 -24 16 -15 -4 -16 -2 -6 14 16
25 21 24 42 -7 13 -21 19 -24 26 -13 13 21 11 27 -13 43 -17 11 -33 13 -60 7
-21 -5 -38 -5 -38 -1 0 4 -7 10 -15 14 -9 3 -15 0 -15 -8z"/>
<path d="M2657 1962 l-97 -3 2 -322 3 -322 139 -3 c105 -2 141 1 148 10 4 7 8
36 9 63 1 63 10 90 29 90 29 0 31 168 4 239 -4 11 0 16 10 16 22 0 21 73 -3
125 -19 42 -82 105 -106 105 -7 0 -19 1 -27 3 -7 1 -57 1 -111 -1z"/>
<path d="M1175 1916 c-42 -43 -65 -101 -65 -161 0 -15 -11 -41 -24 -58 -33
-45 -58 -97 -46 -97 5 0 26 25 46 55 42 62 57 70 43 23 -5 -18 -9 -78 -8 -133
1 -55 -4 -124 -10 -154 -14 -67 -14 -188 -1 -196 16 -10 21 16 28 152 8 142
23 166 34 53 3 -39 8 -73 10 -75 3 -3 299 -8 332 -6 6 1 -2 13 -16 29 -41 43
-58 87 -58 147 0 61 14 97 54 134 33 31 33 37 -6 50 -53 19 -78 49 -78 96 0
32 6 47 28 67 42 41 73 48 208 48 l124 0 0 35 0 35 -277 0 -276 0 -42 -44z"/>
<path d="M1838 1893 l-3 -68 -164 -3 c-101 -1 -170 -7 -178 -13 -7 -7 -13 -24
-13 -39 0 -25 6 -30 58 -48 35 -12 65 -16 77 -11 39 15 148 9 191 -10 80 -36
102 -96 64 -170 -20 -41 -88 -101 -112 -101 -8 0 -24 11 -37 23 l-22 24 38 26
c41 29 73 74 73 104 0 28 -51 53 -107 53 -62 0 -143 -37 -173 -81 -54 -75 -15
-187 83 -237 41 -22 64 -25 189 -30 l141 -5 -7 33 c-4 24 -2 38 10 52 38 42
102 5 89 -51 l-7 -31 146 0 c142 0 170 6 127 30 -11 5 -29 24 -41 40 -18 25
-19 34 -10 45 19 23 35 18 72 -21 47 -50 90 -74 132 -74 36 0 36 0 36 44 0 42
-1 44 -34 50 -28 5 -46 21 -46 41 0 13 36 35 56 35 22 0 24 4 24 50 0 47 -11
63 -25 40 -14 -22 -83 -42 -147 -43 -56 0 -75 5 -120 30 -30 17 -66 48 -83 72
-29 42 -30 46 -33 177 l-4 134 -118 0 -119 0 -3 -67z"/>
<path d="M2150 1841 c0 -106 2 -121 23 -152 51 -75 145 -101 235 -64 79 33 82
42 82 197 l0 138 -170 0 -170 0 0 -119z"/>
<path d="M1288 1223 c-16 -39 -24 -198 -9 -189 6 4 11 24 12 44 1 20 4 48 8
62 7 24 9 23 19 -16 22 -78 110 -175 225 -251 38 -25 71 -42 75 -39 3 4 5 25
3 48 -2 27 1 38 8 34 6 -4 11 -13 11 -20 0 -21 94 -159 127 -187 17 -14 45
-31 62 -39 27 -11 34 -10 49 2 29 25 54 29 102 17 43 -11 49 -10 120 26 101
51 165 93 244 159 l66 57 0 -45 0 -44 -92 -62 c-95 -64 -112 -80 -83 -80 29 0
96 41 139 84 22 23 70 60 106 82 92 56 184 149 218 220 l27 59 3 -57 c3 -63
16 -74 33 -30 12 31 5 88 -18 150 l-16 42 -714 0 -713 0 -12 -27z"/>
</g>
</svg>
